<?xml version="1.0" encoding="UTF-8"?>
<svg version="1.1" xmlns="http://www.w3.org/2000/svg" width="2000" height="2000">
<path d="M0 0 C660 0 1320 0 2000 0 C2000 660 2000 1320 2000 2000 C1340 2000 680 2000 0 2000 C0 1340 0 680 0 0 Z " fill="#111010" transform="translate(0,0)"/>
<path d="M0 0 C11.55 0 23.1 0 35 0 C35.33 166.65 35.66 333.3 36 505 C40.29 499.72 44.58 494.44 49 489 C55.59035784 482.55448519 62.2519308 476.96922582 70 472 C70.54640137 471.64550781 71.09280273 471.29101562 71.65576172 470.92578125 C100.84548171 452.1340472 135.68879925 446.36060041 169.6171875 453.6796875 C208.16105543 462.78751255 238.9330014 485.52936641 260 519 C266.19817916 529.13024608 270.4512813 539.69083227 274 551 C274.31839844 552.010625 274.63679688 553.02125 274.96484375 554.0625 C278.45611752 566.01273061 279.41178513 578.03292219 279.375 590.4375 C279.37418427 591.48056808 279.37418427 591.48056808 279.37335205 592.54470825 C279.2476649 627.72051864 266.54834865 662.40094382 242 688 C241.03397599 689.18125215 240.0749471 690.36828079 239.125 691.5625 C235.00892406 696.3758347 229.99965099 700.15121206 225 704 C224.20263428 704.6177832 224.20263428 704.6177832 223.38916016 705.24804688 C198.9907729 723.98162076 168.79371948 733.52067751 138 732 C136.68515625 731.979375 135.3703125 731.95875 134.015625 731.9375 C94.3536303 730.99451392 64.24574461 710.8926666 37.33837891 683.61303711 C36 682 36 682 36 680 C35.34 680 34.68 680 34 680 C34 727.19 34 774.38 34 823 C22.78 823 11.56 823 0 823 C0 551.41 0 279.82 0 0 Z " fill="#44AFAF" transform="translate(563,611)"/>
<path d="M0 0 C0.93714844 0.19464844 1.87429688 0.38929688 2.83984375 0.58984375 C36.57181135 8.24179345 65.30372976 27.76839809 84 57 C84.69609375 58.07378906 85.3921875 59.14757812 86.109375 60.25390625 C102.87390989 87.77243542 109.78069993 125.2392175 102.375 156.9375 C101.66963814 159.65623407 100.85780173 162.32598843 100 165 C99.79632812 165.68449219 99.59265625 166.36898437 99.3828125 167.07421875 C94.38102053 183.77773389 86.29401103 199.67933121 75 213 C74.33943604 213.78383057 74.33943604 213.78383057 73.66552734 214.58349609 C62.12362325 228.1246587 48.8263758 237.96905058 33 246 C32.37432129 246.32484375 31.74864258 246.6496875 31.10400391 246.984375 C2.67548433 261.50739783 -33.00106879 262.93428032 -63.25 253.6875 C-82.68508512 247.34873081 -98.95733333 237.73189488 -114 224 C-114.73605469 223.33484375 -115.47210937 222.6696875 -116.23046875 221.984375 C-130.70826189 208.22902663 -140.33897288 190.63452985 -147 172 C-147.37898438 170.96875 -147.75796875 169.9375 -148.1484375 168.875 C-159.33188511 135.91325968 -155.0323643 99.86961908 -139.99658203 68.9921875 C-131.12823922 51.26419208 -118.74371175 36.01672116 -103 24 C-101.88431641 23.12601563 -101.88431641 23.12601563 -100.74609375 22.234375 C-83.81598211 9.6324832 -64.62777868 2.57065643 -44 -1 C-43.11570312 -1.18691406 -42.23140625 -1.37382813 -41.3203125 -1.56640625 C-27.96555691 -3.31038021 -13.15350014 -2.97497372 0 0 Z " fill="#000000" transform="translate(1321,810)"/>
<path d="M0 0 C4.33350769 1.69294281 7.26821398 4.89786789 10.5625 8.0625 C15.63150704 12.85183314 20.79435082 17.40967362 26.2421875 21.76953125 C28.72773995 23.77980101 31.15879295 25.84228715 33.57983398 27.92944336 C40.1988411 33.62369929 47.07187926 38.89836894 54.08984375 44.08984375 C57.09092403 46.31115616 60.04576374 48.58252434 62.98266602 50.88769531 C69.72103698 56.16509665 76.71407366 60.95539257 83.88671875 65.62109375 C86.13978024 67.09120596 88.38258481 68.57620498 90.625 70.0625 C102.03834548 77.59482803 113.66276776 84.70114128 125.49755859 91.55126953 C127.73839069 92.84854735 129.97298428 94.15593728 132.20703125 95.46484375 C141.19256163 100.67568722 150.45540748 105.17098577 159.859375 109.57421875 C164.52991015 111.7640763 169.14680518 114.04754812 173.75 116.375 C182.3426808 120.69551257 190.94358987 124.43482425 199.97851562 127.71923828 C203.49388317 129.00814797 206.92378803 130.39353676 210.33203125 131.9453125 C215.35514484 134.20716352 220.48482684 136.07074968 225.6875 137.875 C226.68064209 138.22014648 227.67378418 138.56529297 228.69702148 138.92089844 C238.09153596 142.12831104 247.60468228 144.75326273 257.20849609 147.24829102 C260.40815101 148.10990878 263.58248229 149.04640437 266.76171875 149.98046875 C273.86438269 152.01805118 281.00445368 153.62331614 288.25 155.0625 C289.5376123 155.31926514 290.82522461 155.57603027 292.15185547 155.84057617 C304.68542753 158.28576371 317.28953237 159.82049977 330 161 C330.89605957 161.0942627 331.79211914 161.18852539 332.71533203 161.28564453 C342.33713434 162.22349762 351.96617549 162.24358997 361.625 162.25 C362.54296356 162.25067474 363.46092712 162.25134949 364.40670776 162.25204468 C414.91378329 162.1935931 464.04830134 152.94705923 509.04052734 129.03710938 C511.23292149 127.87671935 513.43806148 126.74275787 515.64453125 125.609375 C517.20097869 124.80296644 518.75697859 123.99569339 520.3125 123.1875 C521.03695312 122.81423584 521.76140625 122.44097168 522.5078125 122.05639648 C525.78814274 120.32881339 528.47365322 118.70690302 531 116 C520.00897246 107.99401999 508.86517516 100.6433517 497 94 C496.37416016 93.64454102 495.74832031 93.28908203 495.10351562 92.92285156 C486.68052983 88.15639042 478.07581837 84.19121502 469.08056641 80.61279297 C468.30374512 80.29971191 467.52692383 79.98663086 466.7265625 79.6640625 C466.03127441 79.39029785 465.33598633 79.1165332 464.61962891 78.83447266 C463 78 463 78 462 76 C462.97606201 75.91024902 463.95212402 75.82049805 464.95776367 75.72802734 C491.52895326 73.26369157 517.97435081 70.15527695 544.39050293 66.37310791 C546.86437682 66.01939151 549.3388732 65.67034638 551.81347656 65.32177734 C571.0305984 62.59076047 589.94866692 58.86763314 608.875 54.5625 C609.86335846 54.33938141 610.85171692 54.11626282 611.87002563 53.88638306 C635.65872401 48.48086505 661.07641184 42.58997872 682.15673828 29.85986328 C682.76501465 29.5761084 683.37329102 29.29235352 684 29 C684.66 29.33 685.32 29.66 686 30 C685.319375 30.8765625 684.63875 31.753125 683.9375 32.65625 C665.39791417 56.81044004 649.55363173 82.95618205 633.82080078 108.98779297 C632.60716124 110.99555438 631.39199184 113.00239184 630.17529297 115.00830078 C615.83488507 138.65719372 602.2327483 162.70361851 588.75732422 186.85302734 C585.65677669 192.40541102 582.54633755 197.95225518 579.4375 203.5 C575.61233298 210.32634414 571.79445337 217.15652767 568 224 C567.67 224 567.34 224 567 224 C566.98541748 223.13536133 566.97083496 222.27072266 566.95581055 221.37988281 C566.53104252 198.77561987 565.30128822 177.84001575 558.3046875 156.16015625 C557.32647604 153.12770071 556.52190093 150.1504995 556 147 C554.94425781 147.72703125 553.88851562 148.4540625 552.80078125 149.203125 C507.78337817 179.90079496 455.08223296 201.48672402 401.9453125 213.53955078 C398.97790628 214.2419263 396.05679681 215.10032408 393.125 215.9375 C373.5407833 221.12648049 353.71187729 224.378176 333.625 226.8125 C332.76449036 226.91754852 331.90398071 227.02259705 331.01739502 227.13082886 C328.50456741 227.43423575 325.99090593 227.72897276 323.4765625 228.01953125 C322.75750732 228.10467987 322.03845215 228.18982849 321.29760742 228.27755737 C308.35061269 229.72445788 295.40708641 230.15509756 282.38671875 230.1328125 C280.95620202 230.13348933 279.52568541 230.13446248 278.09516907 230.13571167 C275.12975953 230.13716846 272.16438054 230.13509865 269.19897461 230.13037109 C265.4294402 230.12464869 261.65997664 230.12798156 257.89044476 230.13394356 C254.94850646 230.13758197 252.00658459 230.13639606 249.06464577 230.13381577 C247.67540287 230.1331569 246.2861584 230.13393773 244.89691734 230.13629532 C224.49010875 230.16336958 224.49010875 230.16336958 218 228 C216.13767943 227.78960361 214.27471748 227.58334411 212.40893555 227.40625 C175.36589245 223.85835405 136.44278025 213.25935658 103.5078125 195.8515625 C100.08309189 194.0438592 96.61495671 192.36490516 93.125 190.6875 C72.32143936 180.22681945 53.38236123 166.4343857 36 151 C35.44103027 150.50806152 34.88206055 150.01612305 34.30615234 149.50927734 C32.61296174 148.01466787 30.92952366 146.50994069 29.25 145 C28.73574463 144.54278564 28.22148926 144.08557129 27.69165039 143.61450195 C25.2840152 141.41626218 24.05096525 140.15289576 23 137 C23.648479 137.0407666 24.29695801 137.0815332 24.96508789 137.12353516 C49.66634963 139.52638532 49.66634963 139.52638532 71.7734375 130.53515625 C75.5379992 126.77943155 77.03112179 123.27272307 77.21484375 117.96875 C75.86608575 99.3313667 65.64192528 82.85976152 55 68 C54.36578125 67.10410156 53.7315625 66.20820312 53.078125 65.28515625 C45.36599825 54.53445156 37.25722964 44.17264618 28.65625 34.125 C26.19835363 31.24919041 23.81304799 28.31934117 21.4375 25.375 C17.5747199 20.62771927 13.51371139 16.09715912 9.375 11.58984375 C7.18641697 9.20328035 5.01983161 6.80090833 2.875 4.375 C2.31554687 3.74335937 1.75609375 3.11171875 1.1796875 2.4609375 C0 1 0 1 0 0 Z " fill="#67B1AC" transform="translate(606,1313)"/>
<path d="M0 0 C25.57420769 -0.09041984 51.14828523 -0.16405159 76.72261238 -0.20724869 C88.59817365 -0.22784217 100.47362828 -0.25590124 112.34912109 -0.30175781 C122.70416014 -0.34172405 133.05912192 -0.36745615 143.41423595 -0.37635398 C148.89325014 -0.38155216 154.37204336 -0.39370255 159.85098648 -0.42292023 C165.0170748 -0.45024409 170.18285293 -0.45841091 175.34900665 -0.45243073 C177.23628556 -0.45352341 179.12357577 -0.46137547 181.01079178 -0.4768219 C192.10729209 -0.5631233 201.46135282 0.19976351 212 4 C213.14370119 4.39854061 214.28740238 4.79708122 215.46576118 5.20769882 C240.41050729 14.10705603 258.17280921 30.71274739 269.77392578 54.50512695 C278.2619792 72.4588797 282.20174049 90.86615583 282.1875 110.6875 C282.1862915 112.42471313 282.1862915 112.42471313 282.18505859 114.19702148 C282.12895065 122.00867792 281.69719208 129.35670141 280 137 C279.86722656 137.72703125 279.73445313 138.4540625 279.59765625 139.203125 C276.0574478 157.40991133 268.77265761 174.60634255 257 189 C256.27425781 189.90105469 255.54851562 190.80210937 254.80078125 191.73046875 C239.1522061 210.0690469 217.11824039 220.56178815 193.20218277 222.80421257 C185.95378486 223.24739314 178.68245286 223.12889181 171.42333984 223.11352539 C169.54996746 223.11324296 167.67659497 223.11340234 165.80322266 223.1139679 C160.74198298 223.11425369 155.68076721 223.10839219 150.61953306 223.10139394 C145.32111452 223.09512411 140.02269537 223.09455373 134.72427368 223.09336853 C124.7018827 223.09026589 114.67950269 223.08206693 104.65711653 223.07201904 C93.24235118 223.06082471 81.82758529 223.05533909 70.41281581 223.05032361 C46.94186974 223.0398834 23.47093868 223.02155122 0 223 C0 201.22 0 179.44 0 157 C8.44835449 156.97812622 8.44835449 156.97812622 17.06738281 156.95581055 C35.68321793 156.90545749 54.29896996 156.83901044 72.91472244 156.76428509 C84.20062576 156.71937482 95.48649785 156.67994915 106.77246094 156.65356445 C116.6126141 156.63054576 126.45266806 156.59710451 136.29274249 156.55129844 C141.49997842 156.52741845 146.70711643 156.50865546 151.91440582 156.50238609 C156.82279714 156.49631159 161.73093807 156.47622664 166.63923645 156.44572449 C168.43379219 156.43698206 170.2283807 156.43321375 172.02295685 156.43499184 C186.88371 156.4450607 202.37480425 155.37652171 214.16796875 145.11328125 C223.53529941 134.94703113 226.6890754 121.58211575 226.2890625 107.9453125 C225.12515918 96.0860814 221.10317219 84.99222039 212 77 C197.77442207 67.30784801 179.89162725 66.39934923 163.24951172 66.45410156 C161.45376706 66.44533885 159.65803017 66.43484384 157.86230469 66.42277527 C153.04941079 66.39522453 148.23677553 66.39150365 143.4238143 66.39249516 C138.37095627 66.3893391 133.31821022 66.36366562 128.26541138 66.34051514 C118.72495061 66.30015598 109.18455785 66.27966197 99.64402497 66.26654124 C88.77071879 66.25060269 77.89752722 66.21215865 67.02428794 66.17194796 C44.6828745 66.08982417 22.34153409 66.03853019 0 66 C0 44.22 0 22.44 0 0 Z " fill="#FEFEFE" transform="translate(760,544)"/>
<path d="M0 0 C1.20953585 -0.00128164 1.20953585 -0.00128164 2.44350678 -0.00258917 C5.13041607 -0.00422897 7.81726216 0.00125274 10.50416565 0.00672913 C12.43620807 0.00701135 14.36825061 0.00685258 16.30029297 0.00628662 C21.53525811 0.00600001 26.77020028 0.01187474 32.00516009 0.01886058 C37.47976741 0.02511678 42.95437526 0.02569971 48.4289856 0.02688599 C58.79146958 0.02999261 69.153943 0.038197 79.51642233 0.04823548 C91.31563323 0.05941736 103.11484464 0.0649123 114.91405952 0.06993091 C139.18181369 0.08038016 163.44955338 0.09871735 187.71730042 0.12025452 C187.71730042 21.57025452 187.71730042 43.02025452 187.71730042 65.12025452 C182.42876038 65.14531067 177.14022034 65.17036682 171.69142151 65.19618225 C154.19721478 65.27974468 136.70303641 65.3683721 119.20886803 65.45959377 C108.6045932 65.51476561 98.00031501 65.56822036 87.39601135 65.61756897 C78.14844532 65.66060824 68.90090245 65.70693431 59.65337241 65.75713307 C54.76132244 65.78357597 49.86927658 65.80842335 44.97719955 65.82932854 C40.36272655 65.84909954 35.74829699 65.87330014 31.13386345 65.90074539 C29.4497921 65.91000875 27.7657113 65.91772103 26.08162498 65.92367363 C-2.83438242 65.43871083 -2.83438242 65.43871083 -27.28269958 79.12025452 C-35.42308874 87.42565156 -38.36481023 99.85676022 -38.53269958 111.24525452 C-38.41531312 122.81434291 -34.67053453 135.73241957 -26.28269958 144.12025452 C-13.83742954 155.06503101 3.18878785 155.86370294 18.90504456 155.77967834 C20.75975614 155.78815493 22.61445883 155.79880962 24.46914673 155.81144714 C29.44744696 155.83932173 34.42531236 155.83717057 39.40366673 155.8291533 C44.62736921 155.82600516 49.85093867 155.85112964 55.07458496 155.87310791 C64.94093204 155.91039973 74.80714134 155.92268707 84.67355198 155.92573231 C95.91684527 155.93043935 107.16000193 155.96341522 118.4032346 155.99863017 C141.50794142 156.07037019 164.61248394 156.10332013 187.71730042 156.12025452 C187.71730042 178.23025452 187.71730042 200.34025452 187.71730042 223.12025452 C60.22819465 223.2975142 60.22819465 223.2975142 22.63261414 222.91172791 C19.76270765 222.88252506 16.89296119 222.86195762 14.02293396 222.84953308 C-16.27709574 222.70556815 -41.26731101 216.29761962 -63.84519958 194.93275452 C-85.67117701 172.4523827 -94.86546089 139.8962687 -94.63450623 109.22792053 C-93.92943761 78.52449994 -84.35853594 48.94961974 -62.97019958 26.30775452 C-46.03434141 10.31935694 -23.4062454 -0.0918558 0 0 Z " fill="#007F7F" transform="translate(761.2826995849609,466.87974548339844)"/>
<path d="M0 0 C1.92102539 -0.01160156 1.92102539 -0.01160156 3.88085938 -0.0234375 C14.97691313 -0.0008271 25.35904219 1.28648997 35.875 4.875 C36.63490234 5.13297363 37.39480469 5.39094727 38.17773438 5.65673828 C50.11963454 9.87723886 60.53468182 15.85911474 70.0625 24.25 C70.88105469 24.92546875 71.69960938 25.6009375 72.54296875 26.296875 C94.84038468 45.24103614 105.42732141 72.75606898 108.0625 101.25 C110.15839869 127.71299906 100.65099444 156.61572842 83.66552734 176.91992188 C65.03645849 198.32482525 40.87647727 213.67987319 12.0625 216.25 C-4.74723702 217.13280159 -20.39417874 216.20802107 -35.9375 209.25 C-37.3088925 208.74018866 -38.68380818 208.23972837 -40.0625 207.75 C-63.98882966 198.68268062 -85.1908703 177.66594082 -95.76171875 154.4375 C-107.84610557 125.52456721 -107.35687518 92.01255785 -95.72705078 63.1171875 C-85.58529991 39.13323243 -64.14034069 17.24399167 -39.9375 7.25 C-26.42462171 1.8843504 -14.58165849 -0.08779724 0 0 Z " fill="#000000" transform="translate(698.9375,1095.75)"/>
<path d="M0 0 C10.56 0 21.12 0 32 0 C32 113.19 32 226.38 32 343 C21.44 343 10.88 343 0 343 C-0.33 329.47 -0.66 315.94 -1 302 C-4.63 305.96 -8.26 309.92 -12 314 C-37.19937146 338.5362301 -68.47433245 349.40790841 -103.25268555 349.37109375 C-136.50630987 348.84062716 -163.99838158 335.56994293 -188 313 C-188.88558594 312.21109375 -188.88558594 312.21109375 -189.7890625 311.40625 C-210.19615728 292.44989655 -224.79217927 260.88388062 -226.19042969 233.234375 C-226.27552273 229.75096472 -226.28129358 226.26940692 -226.26074219 222.78515625 C-226.25005036 220.63512757 -226.26068075 218.4859405 -226.2734375 216.3359375 C-226.29471359 196.16576669 -221.68008027 178.08474128 -213 160 C-212.55011719 159.04609375 -212.10023438 158.0921875 -211.63671875 157.109375 C-197.16171974 128.58636809 -169.29283799 105.15730534 -139 95 C-108.40682441 85.9701083 -77.27596071 86.6063611 -48 100 C-46.89398437 100.4846875 -45.78796875 100.969375 -44.6484375 101.46875 C-27.99415008 109.2149302 -11.27051125 123.59423313 -1 139 C-0.67 93.13 -0.34 47.26 0 0 Z M-158 142 C-158.94488281 142.78246094 -159.88976562 143.56492187 -160.86328125 144.37109375 C-176.97403245 158.29809168 -186.66518475 176.62459218 -192 197 C-192.24492188 197.83144531 -192.48984375 198.66289063 -192.7421875 199.51953125 C-195.97735808 212.17215043 -194.74426335 227.39846886 -192 240 C-191.75507812 241.16402344 -191.51015625 242.32804687 -191.2578125 243.52734375 C-186.7436803 262.56260032 -177.34034622 277.84387721 -164 292 C-163.44828125 292.61617187 -162.8965625 293.23234375 -162.328125 293.8671875 C-147.94113371 309.32251973 -126.20676364 319.04410757 -105.3215332 320.140625 C-78.15071444 321.08233954 -52.84116549 315.46996237 -32.125 296.875 C-12.36920799 278.41660329 0.44214237 256.44661894 2 229 C2.04237793 228.2869873 2.08475586 227.57397461 2.12841797 226.83935547 C3.58513334 198.60567291 -5.6402123 171.4335636 -24.49609375 150.1875 C-44.05219517 129.75151593 -68.48833152 120.44781157 -96.37988281 119.65625 C-119.33776684 119.3757413 -140.43962357 127.16408254 -158 142 Z " fill="#007E7E" transform="translate(1105,719)"/>
<path d="M0 0 C1.95486328 -0.02416992 1.95486328 -0.02416992 3.94921875 -0.04882812 C34.2358738 -0.06383638 62.15402881 12.41898593 84.25390625 32.69921875 C89.36443829 37.98105354 94.00264019 43.70198387 98.75 49.3125 C99.08 35.1225 99.41 20.9325 99.75 6.3125 C109.98 6.3125 120.21 6.3125 130.75 6.3125 C130.75 87.8225 130.75 169.3325 130.75 253.3125 C120.52 253.3125 110.29 253.3125 99.75 253.3125 C99.42 240.1125 99.09 226.9125 98.75 213.3125 C96.130625 216.035 93.51125 218.7575 90.8125 221.5625 C74.33791406 238.2372065 55.395369 250.02608842 32.75 256.3125 C31.08130859 256.79203125 31.08130859 256.79203125 29.37890625 257.28125 C19.87178761 259.53046974 10.34645236 259.5997531 0.625 259.625 C-0.05360077 259.62867584 -0.73220154 259.63235168 -1.43136597 259.63613892 C-32.46773673 259.72375537 -61.29853467 249.15049687 -83.84765625 227.57421875 C-86.19173261 225.28970442 -86.19173261 225.28970442 -88.73046875 223.41796875 C-91.74869588 220.89576034 -94.10991635 218.03566099 -96.5 214.9375 C-96.97598633 214.32245605 -97.45197266 213.70741211 -97.94238281 213.07373047 C-108.73822584 198.93254449 -116.11055333 184.43751549 -121.5625 167.5 C-121.80508545 166.74823486 -122.0476709 165.99646973 -122.29760742 165.22192383 C-125.66000697 154.30987356 -126.59857064 143.77441652 -126.56567383 132.40795898 C-126.56252895 130.14582355 -126.5860011 127.88502034 -126.61132812 125.62304688 C-126.76203109 91.05799388 -111.66803345 60.41139982 -88 35.75 C-64.36508634 12.84985049 -32.84693938 -0.08027111 0 0 Z M-16.25 32.3125 C-17.23355469 32.51875 -18.21710938 32.725 -19.23046875 32.9375 C-36.93589563 36.96874855 -51.33092804 45.74058161 -64.25 58.3125 C-65.549375 59.5190625 -65.549375 59.5190625 -66.875 60.75 C-86.26779132 81.67380116 -95.40975482 107.59509813 -94.38183594 136.05322266 C-93.62476719 149.02713778 -90.7331083 160.55532157 -85.25 172.3125 C-84.53650391 173.89998047 -84.53650391 173.89998047 -83.80859375 175.51953125 C-72.58959551 199.33315421 -52.13820252 217.62178561 -27.46899414 226.54101562 C-0.93761562 235.5376977 26.03358029 231.4996962 50.84375 219.34765625 C60.50614885 214.37117055 68.21332072 208.09429644 75.75 200.3125 C76.52085937 199.52746094 77.29171875 198.74242187 78.0859375 197.93359375 C94.59722661 180.25196423 102.17789548 156.9813177 102.0625 133.125 C102.05831055 131.93825684 102.05412109 130.75151367 102.04980469 129.52880859 C101.93315942 120.43171829 101.07782111 112.11206515 98.75 103.3125 C98.33234375 101.63220703 98.33234375 101.63220703 97.90625 99.91796875 C90.95824479 74.67155326 72.69527079 54.77177371 50.4375 41.9375 C43.02204544 37.75177304 35.98628226 34.91785493 27.6875 33.1875 C26.91083984 33.01863281 26.13417969 32.84976562 25.33398438 32.67578125 C11.36242235 29.67088984 -2.23649133 29.21130859 -16.25 32.3125 Z " fill="#007F7F" transform="translate(1002.25,1085.6875)"/>
<path d="M0 0 C0.93714844 0.19464844 1.87429688 0.38929688 2.83984375 0.58984375 C36.57181135 8.24179345 65.30372976 27.76839809 84 57 C84.69609375 58.07378906 85.3921875 59.14757812 86.109375 60.25390625 C102.87390989 87.77243542 109.78069993 125.2392175 102.375 156.9375 C101.66963814 159.65623407 100.85780173 162.32598843 100 165 C99.79632812 165.68449219 99.59265625 166.36898437 99.3828125 167.07421875 C94.38102053 183.77773389 86.29401103 199.67933121 75 213 C74.33943604 213.78383057 74.33943604 213.78383057 73.66552734 214.58349609 C62.12362325 228.1246587 48.8263758 237.96905058 33 246 C32.37432129 246.32484375 31.74864258 246.6496875 31.10400391 246.984375 C2.67548433 261.50739783 -33.00106879 262.93428032 -63.25 253.6875 C-82.68508512 247.34873081 -98.95733333 237.73189488 -114 224 C-114.73605469 223.33484375 -115.47210937 222.6696875 -116.23046875 221.984375 C-130.70826189 208.22902663 -140.33897288 190.63452985 -147 172 C-147.37898438 170.96875 -147.75796875 169.9375 -148.1484375 168.875 C-159.33188511 135.91325968 -155.0323643 99.86961908 -139.99658203 68.9921875 C-131.12823922 51.26419208 -118.74371175 36.01672116 -103 24 C-101.88431641 23.12601563 -101.88431641 23.12601563 -100.74609375 22.234375 C-83.81598211 9.6324832 -64.62777868 2.57065643 -44 -1 C-43.11570312 -1.18691406 -42.23140625 -1.37382813 -41.3203125 -1.56640625 C-27.96555691 -3.31038021 -13.15350014 -2.97497372 0 0 Z M-97 63 C-105.53668024 72.74524396 -111.45262623 84.97202281 -116 97 C-116.29648438 97.69738281 -116.59296875 98.39476562 -116.8984375 99.11328125 C-125.38555991 120.75124184 -121.90824224 150.02021863 -113.14794922 171.04492188 C-102.10764515 195.16980938 -81.54126757 214.54133067 -56.625 223.8125 C-55.09478399 224.25051722 -53.55042447 224.63999432 -52 225 C-50.81664062 225.27585937 -49.63328125 225.55171875 -48.4140625 225.8359375 C-21.48743563 231.57466472 5.88284927 227.31830036 29.16894531 212.26318359 C51.791826 196.6564123 65.16880769 174.08801376 70.7421875 147.453125 C75.33025366 120.17612892 69.14055408 94.03628988 53.8125 71.0625 C38.31337648 49.58904472 16.06680323 34.09082612 -10.18359375 29.46484375 C-44.08397788 25.33572838 -74.27430261 38.23529224 -97 63 Z " fill="#007E7E" transform="translate(1321,810)"/>
<path d="M0 0 C1.15798096 0.00821777 2.31596191 0.01643555 3.5090332 0.02490234 C32.54393783 0.4055672 53.20561884 13.52960235 73.12109375 33.921875 C77.03304683 38.19990075 80.65103611 42.70828648 84.25 47.25 C85.40048828 48.52617188 85.40048828 48.52617188 86.57421875 49.828125 C88.25 52.25 88.25 52.25 88.09375 54.1965332 C87.01018446 56.8336483 85.69894665 57.82008598 83.42578125 59.52734375 C82.64396484 60.12353516 81.86214844 60.71972656 81.05664062 61.33398438 C80.23357422 61.94564453 79.41050781 62.55730469 78.5625 63.1875 C76.95375369 64.40405795 75.34566764 65.62148956 73.73828125 66.83984375 C72.9695166 67.41718262 72.20075195 67.99452148 71.40869141 68.58935547 C69.48262136 70.07104835 67.63240785 71.60460357 65.79296875 73.19140625 C63.25 75.25 63.25 75.25 61.25 75.25 C60.00185669 73.84321977 58.8269161 72.37120296 57.6875 70.875 C53.4391605 65.43589627 48.94730136 60.30416348 44.25 55.25 C43.60289062 54.53714844 42.95578125 53.82429688 42.2890625 53.08984375 C31.60771287 41.77633261 17.76385036 35.28373215 2.21655273 34.76049805 C-5.15570678 34.72744548 -11.90718591 35.29543915 -18.75 38.25 C-19.42933594 38.51683594 -20.10867188 38.78367187 -20.80859375 39.05859375 C-32.39245135 44.13923305 -38.00050173 52.88531108 -42.55859375 64.26953125 C-46.57335862 76.97833866 -43.59234197 89.76687833 -37.75 101.25 C-28.86866703 117.42782658 -15.01230951 127.8461851 -0.35449219 138.35986328 C7.63486365 144.15791286 15.42665757 150.230922 23.25 156.25 C23.9296582 156.77223145 24.60931641 157.29446289 25.30957031 157.83251953 C53.5835936 179.61274202 83.9047455 204.92868507 92.25 241.25 C92.78173828 243.08884766 92.78173828 243.08884766 93.32421875 244.96484375 C98.79569743 266.93998163 91.28130334 290.0844378 80.0625 308.9375 C65.38975615 330.71735415 43.19890135 344.55544215 17.76171875 349.99609375 C-9.35992863 354.5320094 -35.68083761 349.0686141 -58.30859375 333.48828125 C-72.26121443 322.92644524 -83.28769026 309.85280701 -92.75 295.25 C-93.38736084 294.27643555 -93.38736084 294.27643555 -94.03759766 293.28320312 C-100.75 282.97116528 -100.75 282.97116528 -100.75 279.25 C-98.80981445 277.76367188 -98.80981445 277.76367188 -96.11328125 276.21875 C-95.14326172 275.65542969 -94.17324219 275.09210938 -93.17382812 274.51171875 C-91.6337207 273.63966797 -91.6337207 273.63966797 -90.0625 272.75 C-89.05509766 272.16863281 -88.04769531 271.58726562 -87.00976562 270.98828125 C-85.12185604 269.89915057 -83.231249 268.81467329 -81.3371582 267.73632812 C-79.55296226 266.7113036 -77.78918168 265.6501928 -76.04370117 264.56054688 C-73.75 263.25 -73.75 263.25 -71.75 263.25 C-71.27691406 264.12140625 -70.80382812 264.9928125 -70.31640625 265.890625 C-65.73398708 274.19743352 -60.7104538 281.83913382 -54.75 289.25 C-54.13769531 290.02859375 -53.52539062 290.8071875 -52.89453125 291.609375 C-42.15756993 304.52120055 -27.54333632 314.73196803 -10.75 317.25 C8.62279543 318.80894919 25.91904163 314.35558537 41.0625 301.6875 C51.21872293 291.93101179 58.17272931 277.99290215 58.66723633 263.86279297 C58.73312656 256.58628857 58.15995235 250.00482915 55.25 243.25 C54.89808594 242.42242188 54.54617188 241.59484375 54.18359375 240.7421875 C46.58030846 224.33113608 31.87607177 210.6373809 17.97265625 199.46875 C15.50181399 197.45520853 13.11680223 195.3839326 10.75 193.25 C6.24275644 189.20381486 1.58047903 185.37202093 -3.12792969 181.56298828 C-4.90247668 180.12657743 -6.67410549 178.68662087 -8.4453125 177.24609375 C-12.54520726 173.9120073 -16.64745126 170.58081988 -20.75 167.25 C-22.14845644 166.11460666 -23.54689403 164.9791901 -24.9453125 163.84375 C-25.62851562 163.28913086 -26.31171875 162.73451172 -27.015625 162.16308594 C-28.37579692 161.05794625 -29.73517782 159.95183226 -31.09375 158.84472656 C-33.96246196 156.50752003 -36.83643852 154.18184221 -39.7421875 151.890625 C-51.62774483 142.45108092 -61.78823506 132.21295762 -69.75 119.25 C-70.23984375 118.46753906 -70.7296875 117.68507813 -71.234375 116.87890625 C-80.80440323 99.83598561 -82.74365399 77.64529544 -78.25 58.8125 C-74.77088455 46.91220404 -69.12480888 35.45881474 -60.75 26.25 C-59.69425781 25.03957031 -59.69425781 25.03957031 -58.6171875 23.8046875 C-48.55117856 12.94137092 -35.89803627 6.28073344 -21.75 2.25 C-21.10095703 2.06453613 -20.45191406 1.87907227 -19.78320312 1.68798828 C-13.19961209 0.000233 -6.76790206 -0.05778254 0 0 Z " fill="#007E7E" transform="translate(438.75,1027.75)"/>
<path d="M0 0 C10.23 0 20.46 0 31 0 C31.33 45.87 31.66 91.74 32 139 C35.63 134.71 39.26 130.42 43 126 C62.56679529 104.85523734 88.70830567 90.80807526 117.70703125 89.68359375 C130.35208716 89.38587342 142.07165177 89.39949384 154 94 C155.04671875 94.38542969 156.0934375 94.77085938 157.171875 95.16796875 C160.17254917 96.34462905 163.0821764 97.63189184 166 99 C167.35158203 99.60908203 167.35158203 99.60908203 168.73046875 100.23046875 C181.83928743 106.68083985 191.68222395 117.53680388 199 130 C199.34901367 130.59232422 199.69802734 131.18464844 200.05761719 131.79492188 C204.59875689 139.70529427 207.82226959 147.81119001 210.375 156.5625 C210.61371826 157.37589844 210.85243652 158.18929688 211.09838867 159.02734375 C214.6513969 172.06232221 215.29479509 185.15009173 215.22705078 198.57397461 C215.22648494 200.17222588 215.2268066 201.77047767 215.22793579 203.36872864 C215.22850355 207.65700677 215.216844 211.94517027 215.20278788 216.23342204 C215.19018306 220.73369799 215.1891024 225.23397731 215.18673706 229.73426819 C215.18055069 238.23362581 215.16417883 246.73293124 215.14403808 255.23226601 C215.12158998 264.91803286 215.11066336 274.60380237 215.10064721 284.28958881 C215.07980969 304.1930947 215.04316951 324.09652916 215 344 C204.77 344 194.54 344 184 344 C183.97812622 337.41019165 183.97812622 337.41019165 183.95581055 330.68725586 C183.90524265 316.0948073 183.8387552 301.50246235 183.76428509 286.91011715 C183.7195609 278.07168213 183.68009432 269.23328531 183.65356445 260.39477539 C183.63039293 252.67975832 183.59678705 244.96486457 183.55129844 237.2499457 C183.52762066 233.17527399 183.50872725 229.10072244 183.50238609 225.02598381 C184.10762705 176.58200927 184.10762705 176.58200927 162.734375 134.4765625 C145.30004893 119.63382544 125.81242578 118.88857836 104 120 C88.76463264 121.66359921 75.10684662 129.85746875 64 140 C62.83017578 141.03060547 62.83017578 141.03060547 61.63671875 142.08203125 C48.43700303 154.36984951 40.84439135 171.35178541 36.1875 188.5 C35.89504395 189.56480591 35.89504395 189.56480591 35.59667969 190.65112305 C31.34903067 207.47128877 31.66119381 224.65376769 31.59528303 241.87308502 C31.57946142 245.47386682 31.55273394 249.07456891 31.5272522 252.67529297 C31.48079639 259.46751219 31.44389367 266.25974699 31.41057932 273.05204201 C31.37212063 280.79596724 31.32277424 288.53981175 31.27259517 296.28366852 C31.1697702 312.18905942 31.08178839 328.0944849 31 344 C20.77 344 10.54 344 0 344 C0 230.48 0 116.96 0 0 Z " fill="#007F7F" transform="translate(1444,996)"/>
<path d="M0 0 C17.20140755 14.13240099 27.20501427 33.30306429 32.36669922 54.7265625 C32.65287109 55.83902344 32.93904297 56.95148438 33.23388672 58.09765625 C36.22487716 70.18980331 36.51201226 82.07715517 36.48022461 94.47924805 C36.47994197 96.037501 36.48010197 97.59575408 36.48066711 99.15400696 C36.48095209 103.35158068 36.475104 107.54912539 36.46809316 111.74669242 C36.46180955 116.14556462 36.46125188 120.5444376 36.46006775 124.9433136 C36.45696913 133.25862275 36.44877567 141.57391864 36.43871826 149.88922197 C36.42751134 159.36208823 36.42203517 168.83495515 36.41702282 178.3078264 C36.40659172 197.78074747 36.38826464 217.25365036 36.36669922 236.7265625 C26.13669922 236.7265625 15.90669922 236.7265625 5.36669922 236.7265625 C5.34687988 232.37823242 5.32706055 228.02990234 5.30664062 223.54980469 C5.23948541 209.12100152 5.16194591 194.6922676 5.07917213 180.26354599 C5.02927716 171.52255715 4.98283387 162.78157662 4.94482422 154.04052734 C4.91164474 146.41236178 4.87167544 138.78426546 4.82390916 131.15617681 C4.7988989 127.12577639 4.77704615 123.09542037 4.76335526 119.06496429 C5.41253492 69.04888449 5.41253492 69.04888449 -17.91064453 26.4453125 C-24.14658824 21.02802591 -30.79320263 18.1501994 -38.63330078 15.7265625 C-39.65166016 15.406875 -40.67001953 15.0871875 -41.71923828 14.7578125 C-62.79248953 9.02503886 -84.02582126 13.9468147 -102.75830078 24.4765625 C-108.2929054 27.94786652 -112.98333736 32.15870116 -117.63330078 36.7265625 C-118.38482422 37.45359375 -119.13634766 38.180625 -119.91064453 38.9296875 C-144.74956687 64.59802904 -146.91193037 98.47965338 -147.03801775 132.2054348 C-147.05383356 135.89029726 -147.08056302 139.57508171 -147.10604858 143.2598877 C-147.15251435 150.21147944 -147.18941237 157.1630864 -147.22272146 164.11475229 C-147.26117295 172.04005147 -147.31052132 179.96527167 -147.36070561 187.89050388 C-147.46354546 204.16913832 -147.55152138 220.44780656 -147.63330078 236.7265625 C-158.19330078 236.7265625 -168.75330078 236.7265625 -179.63330078 236.7265625 C-179.63330078 155.2165625 -179.63330078 73.7065625 -179.63330078 -10.2734375 C-169.07330078 -10.2734375 -158.51330078 -10.2734375 -147.63330078 -10.2734375 C-147.30330078 3.5865625 -146.97330078 17.4465625 -146.63330078 31.7265625 C-140.69330078 24.7965625 -140.69330078 24.7965625 -134.63330078 17.7265625 C-127.67557068 10.98182414 -120.7796312 4.95500147 -112.63330078 -0.2734375 C-111.86888672 -0.78390625 -111.10447266 -1.294375 -110.31689453 -1.8203125 C-78.02558778 -22.46121368 -30.98499971 -24.15811039 0 0 Z " fill="#007E7E" transform="translate(815.63330078125,825.2734375)"/>
<path d="M0 0 C11.55 0 23.1 0 35 0 C35.33 167.31 35.66 334.62 36 507 C35.34 507 34.68 507 34 507 C34 491.49 34 475.98 34 460 C23.44 460.33 12.88 460.66 2 461 C1.67 580.46 1.34 699.92 1 823 C0.67 823 0.34 823 0 823 C0 551.41 0 279.82 0 0 Z " fill="#007E7E" transform="translate(563,611)"/>
<path d="M0 0 C1.64686506 1.22104892 3.26915704 2.47548307 4.875 3.75 C5.46152344 4.21519043 6.04804687 4.68038086 6.65234375 5.15966797 C8.61746438 6.7338403 10.56155342 8.33062342 12.5 9.9375 C13.12922363 10.44893555 13.75844727 10.96037109 14.40673828 11.48730469 C16.1640625 12.98046875 16.1640625 12.98046875 18.875 15.75 C18.875 19.75 18.875 19.75 17.13085938 21.94824219 C15.93686523 23.11081543 15.93686523 23.11081543 14.71875 24.296875 C13.86152344 25.14121094 13.00429687 25.98554687 12.12109375 26.85546875 C11.21488281 27.72816406 10.30867188 28.60085938 9.375 29.5 C8.46878906 30.38816406 7.56257813 31.27632812 6.62890625 32.19140625 C4.38628384 34.38681556 2.13487232 36.57237387 -0.125 38.75 C-1.34645424 37.83476896 -2.56778262 36.91936994 -3.7890625 36.00390625 C-4.88782715 35.18043701 -4.88782715 35.18043701 -6.00878906 34.34033203 C-7.66415126 33.09632772 -9.31368613 31.84456828 -10.9609375 30.58984375 C-24.96268786 20.09930156 -40.29885813 13.73674056 -58.125 15.75 C-61.16431217 16.56462333 -63.96587021 17.53894437 -66.85546875 18.77734375 C-68.94163661 19.67141569 -70.91265245 20.26684364 -73.125 20.75 C-73.125 21.41 -73.125 22.07 -73.125 22.75 C-74.31842452 23.79239561 -75.55636204 24.78409725 -76.8125 25.75 C-82.79181412 30.96464162 -85.94615343 36.06839779 -86.56640625 44.078125 C-87.11210674 57.13547217 -84.59187702 64.54648386 -75.734375 74.29296875 C-70.04485676 79.65031451 -63.80280084 83.69813401 -56.9375 87.375 C-55.35360177 88.2411553 -53.77029306 89.10838929 -52.1875 89.9765625 C-51.36378906 90.42676758 -50.54007813 90.87697266 -49.69140625 91.34082031 C9.54293854 123.86561466 9.54293854 123.86561466 18.9609375 154.25390625 C20.29349447 159.79047795 20.20454643 165.33376779 20.1875 171 C20.20361328 172.05574219 20.21972656 173.11148437 20.23632812 174.19921875 C20.24671063 191.16424006 14.31890551 205.57692577 3.875 218.75 C2.699375 220.3278125 2.699375 220.3278125 1.5 221.9375 C-10.53741137 234.83472647 -28.79371155 244.05446343 -46.5859375 244.91796875 C-66.6869953 245.01827343 -88.51152807 242.09955803 -105.125 229.75 C-105.88554688 229.19441406 -106.64609375 228.63882812 -107.4296875 228.06640625 C-109.7077214 226.34445807 -111.92229032 224.56703668 -114.125 222.75 C-114.83914063 222.17121094 -115.55328125 221.59242188 -116.2890625 220.99609375 C-120.7072942 217.29768631 -123.97351748 213.57570761 -127.125 208.75 C-126.4959375 208.07195312 -125.866875 207.39390625 -125.21875 206.6953125 C-120.12900344 201.16097964 -115.31525321 195.58994325 -110.81640625 189.55078125 C-110.25824219 188.95652344 -109.70007812 188.36226562 -109.125 187.75 C-106.125 187.75 -106.125 187.75 -103.6640625 190.09375 C-102.69016785 191.14348209 -101.7189869 192.19573597 -100.75 193.25 C-89.7608464 204.65431435 -75.80175047 212.62787597 -59.77490234 213.33959961 C-46.93841773 213.51522617 -34.94803673 211.25450203 -24.98046875 202.55859375 C-24.36816406 201.96175781 -23.75585938 201.36492187 -23.125 200.75 C-22.56425781 200.20472656 -22.00351563 199.65945313 -21.42578125 199.09765625 C-14.33266846 191.50427354 -10.80575085 182.52014844 -10.9765625 172.203125 C-11.60726193 161.77998706 -14.75119086 152.65513752 -22.3125 145.25 C-27.93894689 140.52575305 -34.15346447 137.20115175 -40.59765625 133.75 C-102.75242366 100.35271431 -102.75242366 100.35271431 -113.4140625 70.421875 C-118.09266971 52.83853801 -117.02806723 32.91828438 -108.0390625 16.80859375 C-98.39192955 0.75025904 -84.96338999 -7.94169017 -67.125 -13.25 C-65.89523437 -13.61609375 -64.66546875 -13.9821875 -63.3984375 -14.359375 C-41.05968355 -19.76688853 -18.52393476 -12.39981885 0 0 Z " fill="#5CBCBC" transform="translate(1399.125,1101.25)"/>
<path d="M0 0 C14.27468627 10.24445151 25.97737705 24.22306285 29 42 C30.84116541 62.12428533 28.28678167 80.79573476 15.0234375 96.78125 C3.67025329 109.23030142 -11.58403998 119.25895883 -28.96044922 120.09423828 C-31.12041062 120.133949 -33.27722416 120.13646035 -35.4375 120.125 C-36.16259766 120.12886719 -36.88769531 120.13273438 -37.63476562 120.13671875 C-45.25536507 120.12302495 -51.96885947 119.04081804 -59 116 C-59.90878906 115.62230469 -60.81757812 115.24460937 -61.75390625 114.85546875 C-77.10284608 107.91142426 -89.1398002 94.75243468 -95.74609375 79.34375 C-102.1875276 62.16659306 -101.86482418 44.13550209 -94.38671875 27.38671875 C-86.13802682 11.52947729 -74.19368089 -0.85939968 -57 -7 C-56.28457031 -7.27714844 -55.56914063 -7.55429687 -54.83203125 -7.83984375 C-37.3159783 -13.73284141 -15.13182309 -10.63865723 0 0 Z " fill="#7FBEBE" transform="translate(616,453)"/>
<path d="M0 0 C1.19979492 -0.00833862 1.19979492 -0.00833862 2.42382812 -0.0168457 C10.02247575 0.07492161 16.46486695 1.6551868 23.375 4.9375 C24.32375 5.38351562 25.2725 5.82953125 26.25 6.2890625 C26.95125 6.62679688 27.6525 6.96453125 28.375 7.3125 C26.82116712 13.2286463 23.710012 17.91418171 20.4375 23 C19.89931641 23.85400391 19.36113281 24.70800781 18.80664062 25.58789062 C14.42907702 32.4592081 14.42907702 32.4592081 11.375 35.3125 C10.65957031 35.01214844 9.94414063 34.71179687 9.20703125 34.40234375 C-0.76072174 30.59835005 -10.33282609 30.40693343 -20.3828125 34.25390625 C-38.63212631 42.86987148 -48.53034066 59.06471415 -55.3125 77.3984375 C-57.67976838 84.20777488 -59.3957819 91.21156355 -60.625 98.3125 C-60.79226593 99.24727676 -60.95953186 100.18205353 -61.13186646 101.14515686 C-63.28350502 115.40532388 -62.97870466 129.81887852 -63.02971697 144.20487595 C-63.04552025 148.08592677 -63.07225396 151.96690331 -63.0977478 155.84790039 C-63.14423513 163.17136124 -63.18112298 170.49483655 -63.21442068 177.81836796 C-63.25285658 186.16687318 -63.30220924 194.51530323 -63.35240483 202.86374474 C-63.4552769 220.01328058 -63.54324003 237.16284853 -63.625 254.3125 C-73.855 254.3125 -84.085 254.3125 -94.625 254.3125 C-94.625 172.4725 -94.625 90.6325 -94.625 6.3125 C-84.395 6.3125 -74.165 6.3125 -63.625 6.3125 C-63.295 17.5325 -62.965 28.7525 -62.625 40.3125 C-61.036875 38.229375 -59.44875 36.14625 -57.8125 34 C-47.26244405 20.45960126 -35.7661764 9.71735633 -19.625 3.3125 C-18.8825 2.99152344 -18.14 2.67054687 -17.375 2.33984375 C-11.64317575 0.20036074 -6.05011213 0.03545896 0 0 Z " fill="#007F7F" transform="translate(1265.625,1085.6875)"/>
<path d="M0 0 C6.09891344 4.36035122 10.62230826 9.31084577 14 16 C14.598125 17.175625 15.19625 18.35125 15.8125 19.5625 C18.91061998 28.6253912 17.82181945 39.40167482 14.453125 48.21484375 C9.3301506 58.03387802 0.29749629 65.20971635 -10 69 C-20.04080113 71.39066694 -30.28351069 70.58647487 -39.4140625 65.7109375 C-47.39426703 60.71997346 -52.29633438 54.5857703 -56 46 C-56.35964844 45.25363281 -56.71929688 44.50726562 -57.08984375 43.73828125 C-59.91450128 35.24006266 -58.94390578 22.985364 -55 15 C-48.847005 5.25378311 -41.14913221 -1.04290521 -30.19921875 -4.58203125 C-19.66125861 -6.5848052 -9.25649928 -5.55659041 0 0 Z " fill="#007575" transform="translate(716,1174)"/>
<path d="M0 0 C0.33 0 0.66 0 1 0 C1.29132813 1.25554688 1.58265625 2.51109375 1.8828125 3.8046875 C5.49748086 20.13394811 5.49748086 20.13394811 16.25 32.3125 C23.58941612 36.2757847 31.95232984 38.0187653 40 40 C37.15211375 42.84788625 33.7282808 43.25679288 29.9375 44.25 C21.09366422 46.72471922 13.21040775 49.84094065 8.0546875 57.89453125 C4.27413298 65.44163825 2.39180572 73.7224186 1 82 C0.34 82 -0.32 82 -1 82 C-1.23074219 80.88882813 -1.46148438 79.77765625 -1.69921875 78.6328125 C-4.91271562 62.69685866 -4.91271562 62.69685866 -14.8046875 50.3046875 C-23.41197495 45.18932449 -33.28142772 42.95643926 -43 41 C-43 40.67 -43 40.34 -43 40 C-42.14019531 39.84144531 -41.28039063 39.68289063 -40.39453125 39.51953125 C-24.49552952 36.42746118 -24.49552952 36.42746118 -11 28 C-6.08837912 20.63834706 -3.80135551 12.45121474 -1.76171875 3.95703125 C-1 1 -1 1 0 0 Z " fill="#007D7D" transform="translate(1294,899)"/>
<path d="M0 0 C3.71468292 2.75442475 6.24436889 5.84248168 7.72265625 10.27734375 C9.02249623 28.01087489 9.02249623 28.01087489 4.31640625 33.828125 C-1.56277249 39.17414292 -7.30017193 39.94316493 -15.15234375 39.65234375 C-21.24123314 38.92167702 -25.43106575 36.85655946 -29.27734375 32.02734375 C-31.5591621 27.93394664 -31.73516622 23.81008512 -31.77734375 19.21484375 C-31.78378906 18.54227539 -31.79023437 17.86970703 -31.796875 17.17675781 C-31.65095703 11.43825305 -30.38253747 6.72933272 -26.59375 2.31640625 C-26.01496094 1.84976562 -25.43617188 1.383125 -24.83984375 0.90234375 C-23.97552734 0.17917969 -23.97552734 0.17917969 -23.09375 -0.55859375 C-16.48374755 -4.79468134 -6.54314016 -3.77540531 0 0 Z " fill="#DCEAEA" transform="translate(1034.27734375,1368.72265625)"/>
<path d="M0 0 C5.754375 -0.12375 5.754375 -0.12375 11.625 -0.25 C12.82334473 -0.28641602 14.02168945 -0.32283203 15.25634766 -0.36035156 C21.30467459 -0.42332323 25.37566044 -0.35408595 30 4 C34.48421653 9.75648261 35.7594552 15.92111767 35.41796875 23.1015625 C34.54688427 29.14216703 32.55067757 33.97754209 27.875 38 C24.04680054 40.66309527 22.3756418 41.12294309 17.7734375 41.09765625 C16.3800415 41.09390991 16.3800415 41.09390991 14.95849609 41.09008789 C13.77594238 41.08098389 12.59338867 41.07187988 11.375 41.0625 C5.744375 41.0315625 5.744375 41.0315625 0 41 C0 27.47 0 13.94 0 0 Z " fill="#96C8C8" transform="translate(930,1367)"/>
<path d="M0 0 C3.06443049 2.1055812 5.54908901 4.40779964 6.59765625 8.01953125 C6.59765625 9.33953125 6.59765625 10.65953125 6.59765625 12.01953125 C3.54910645 12.30713029 0.63310117 12.48441921 -2.40234375 12.01953125 C-3.40234375 10.35286458 -4.40234375 8.68619792 -5.40234375 7.01953125 C-8.43778867 6.55464329 -11.35379395 6.73193221 -14.40234375 7.01953125 C-14.73234375 8.66953125 -15.06234375 10.31953125 -15.40234375 12.01953125 C-14.23316406 12.39464844 -13.06398438 12.76976562 -11.859375 13.15625 C-10.3109373 13.6723959 -8.76277443 14.18936678 -7.21484375 14.70703125 C-6.44591797 14.95130859 -5.67699219 15.19558594 -4.88476562 15.44726562 C0.61677807 17.31259589 4.8737241 19.57166696 7.59765625 25.01953125 C7.999035 29.1938702 7.85959928 31.51504838 5.91015625 35.26953125 C3.13077274 38.57474407 0.39154242 40.12258816 -3.40234375 42.01953125 C-11.16461351 42.67907051 -16.40133054 42.04732503 -22.71484375 37.26953125 C-24.97826169 34.25164067 -25.1918887 31.73757049 -25.40234375 28.01953125 C-24.40234375 27.01953125 -24.40234375 27.01953125 -20.83984375 26.95703125 C-19.70546875 26.97765625 -18.57109375 26.99828125 -17.40234375 27.01953125 C-17.11359375 27.82390625 -16.82484375 28.62828125 -16.52734375 29.45703125 C-15.66971807 32.15217805 -15.66971807 32.15217805 -13.40234375 33.01953125 C-11.90477504 33.11452628 -10.40291443 33.14940323 -8.90234375 33.14453125 C-8.10828125 33.14710937 -7.31421875 33.1496875 -6.49609375 33.15234375 C-4.34315841 33.15231121 -4.34315841 33.15231121 -2.40234375 32.01953125 C-2.40234375 30.03953125 -2.40234375 28.05953125 -2.40234375 26.01953125 C-5.52463075 24.60946615 -8.49283722 23.7777487 -11.83984375 23.14453125 C-16.74740034 22.09758584 -20.60350809 20.30895846 -23.77734375 16.26953125 C-24.73622109 12.81757281 -24.97617155 9.53947496 -24.40234375 6.01953125 C-19.34802097 -2.28399903 -8.7373762 -3.56598606 0 0 Z " fill="#128282" transform="translate(814.40234375,1366.98046875)"/>
<path d="M0 0 C-0.33 0.66 -0.66 1.32 -1 2 C-3.2466696 2.74404582 -5.52402838 3.39665424 -7.8125 4 C-11.7881489 5.05467992 -15.36311915 6.09134584 -19 8 C-15.06516039 10.31704962 -11.12668993 12.62785531 -7.1875 14.9375 C-6.06794922 15.59685547 -4.94839844 16.25621094 -3.79492188 16.93554688 C-2.72177734 17.56396484 -1.64863281 18.19238281 -0.54296875 18.83984375 C0.44678955 19.42113037 1.43654785 20.00241699 2.45629883 20.60131836 C5.00284747 22.1009488 5.00284747 22.1009488 8 23 C7.85780436 20.79142945 7.71108153 18.58315013 7.5625 16.375 C7.48128906 15.14523437 7.40007813 13.91546875 7.31640625 12.6484375 C7.03336056 9.38467612 6.58961047 6.22056141 6 3 C9 4 9 4 10.1640625 6.12109375 C12.95428836 15.73042299 11.6091301 27.20075164 7 36 C2.62770543 42.0266763 -2.54357157 47.25527151 -9 51 C-10.485 50.505 -10.485 50.505 -12 50 C-11.81590576 49.43684082 -11.63181152 48.87368164 -11.44213867 48.29345703 C-10.92527859 45.6124059 -11.2628412 43.94428365 -11.92578125 41.3046875 C-12.14556641 40.42425781 -12.36535156 39.54382812 -12.59179688 38.63671875 C-12.82962891 37.72535156 -13.06746094 36.81398438 -13.3125 35.875 C-13.53873047 34.95589844 -13.76496094 34.03679687 -13.99804688 33.08984375 C-15.10243807 28.06814737 -15.10243807 28.06814737 -18 24 C-18.66 24 -19.32 24 -20 24 C-19.79375 22.783125 -19.5875 21.56625 -19.375 20.3125 C-18.94373571 16.61408199 -18.81705607 14.1834599 -21 11 C-23.29408143 9.68909633 -25.4865622 8.88435775 -28 8 C-27.67 7.01 -27.34 6.02 -27 5 C-24.24619413 4.16162573 -21.62286249 3.50517921 -18.8125 2.9375 C-17.29761334 2.61592559 -15.78327634 2.29174967 -14.26953125 1.96484375 C-13.17753418 1.7313623 -13.17753418 1.7313623 -12.06347656 1.49316406 C-9.75324964 0.97366991 -9.75324964 0.97366991 -6.59765625 -0.14453125 C-3.85064611 -1.04918572 -2.65907799 -1.0227223 0 0 Z " fill="#007575" transform="translate(722,1189)"/>
<path d="M0 0 C2.97 0 5.94 0 9 0 C9.01981934 0.95890137 9.03963867 1.91780273 9.06005859 2.90576172 C9.13604145 6.45811553 9.2247693 10.01005576 9.31738281 13.56201172 C9.35570301 15.10034021 9.39055056 16.63875925 9.421875 18.17724609 C9.46746059 20.38672276 9.5254634 22.59557448 9.5859375 24.8046875 C9.59748871 25.49432587 9.60903992 26.18396423 9.62094116 26.89450073 C9.64951022 30.8920154 9.64951022 30.8920154 12 34 C14.10417968 34.35639561 14.10417968 34.35639561 16.4375 34.3125 C17.21996094 34.32925781 18.00242187 34.34601563 18.80859375 34.36328125 C21.63527009 33.89468785 22.30905041 33.31003719 24 31 C24.508149 27.80522025 24.508149 27.80522025 24.51171875 24.14453125 C24.52966995 23.48289474 24.54762115 22.82125824 24.56611633 22.13957214 C24.62020898 20.03061253 24.65410931 17.92187901 24.6875 15.8125 C24.72067427 14.38082792 24.75516405 12.94918567 24.79101562 11.51757812 C24.87593257 8.0119361 24.94274921 4.50621527 25 1 C27.64 1 30.28 1 33 1 C33.0994692 5.42905723 33.17174818 9.85750909 33.21972656 14.28735352 C33.23974363 15.79170062 33.26696627 17.29597089 33.30175781 18.80004883 C33.35071945 20.97236162 33.37306653 23.14363906 33.390625 25.31640625 C33.41157227 26.62037354 33.43251953 27.92434082 33.45410156 29.26782227 C32.88833491 33.91775492 31.65233207 36.16258974 29 40 C23.60583692 43.34438111 18.26278853 43.88070464 12 43 C7.66283487 41.6373096 4.77842255 40.054637 2.0625 36.375 C1.711875 35.59125 1.36125 34.8075 1 34 C0.67 33.34 0.34 32.68 0 32 C-0.08639869 29.59161322 -0.11567764 27.21266119 -0.09765625 24.8046875 C-0.0962413 24.09724396 -0.09482635 23.38980042 -0.09336853 22.66091919 C-0.087766 20.39890331 -0.07521318 18.13698602 -0.0625 15.875 C-0.05748532 14.34244935 -0.05292236 12.80989714 -0.04882812 11.27734375 C-0.03779577 7.51819112 -0.02052952 3.75911228 0 0 Z " fill="#64ACAC" transform="translate(880,1366)"/>
<path d="M0 0 C3.62831962 3.12438634 4.94773124 6.55661595 5.53515625 11.18359375 C5.72824121 16.16182773 5.07713883 19.69679176 2.25 23.9375 C-1.50265364 27.33198279 -4.4147518 27.55698631 -9.3359375 27.43359375 C-12.10593588 26.8643546 -13.0197014 26.20651937 -14.8125 24.0625 C-18.35208397 18.35349359 -18.38536593 13.60449043 -17.75 6.9375 C-16.55194271 3.67232832 -14.72169168 1.67464541 -11.9375 -0.4375 C-7.70806242 -1.64591074 -4.10246673 -1.58504396 0 0 Z " fill="#040404" transform="translate(1028.75,1374.0625)"/>
<path d="M0 0 C10.89 0 21.78 0 33 0 C33 1.98 33 3.96 33 6 C28.71 6 24.42 6 20 6 C20 17.55 20 29.1 20 41 C17.36 41 14.72 41 12 41 C12 29.78 12 18.56 12 7 C8.04 7 4.08 7 0 7 C0 4.69 0 2.38 0 0 Z " fill="#3C9B9B" transform="translate(834,1367)"/>
<path d="M0 0 C11 0 11 0 15 2 C17.97646209 5.8163216 18.38504544 8.72316204 18.3125 13.5 C18.30863281 14.6034375 18.30476562 15.706875 18.30078125 16.84375 C17.9967093 20.03453097 17.5181067 22.18547837 16 25 C12 28 12 28 0 28 C0 18.76 0 9.52 0 0 Z " fill="#060808" transform="translate(938,1373)"/>
<path d="M0 0 C-3.66376737 7.56139223 -7.5516281 14.86998546 -12 22 C-18.61628707 19.95496581 -24.09819862 16.98315907 -29 12 C-29.70443164 10.34894025 -30.37611312 8.68314806 -31 7 C-26.77363854 5.82300462 -22.54349462 4.66021981 -18.3125 3.5 C-17.11431641 3.16613281 -15.91613281 2.83226562 -14.68164062 2.48828125 C-13.52470703 2.17246094 -12.36777344 1.85664062 -11.17578125 1.53125 C-10.11270752 1.23798828 -9.04963379 0.94472656 -7.9543457 0.64257812 C-5.1903768 0.04140747 -2.81542433 -0.12745656 0 0 Z " fill="#000404" transform="translate(698,1218)"/>
<path d="M0 0 C4.26900838 6.32990897 3.27574131 13.63668582 3 21 C-1.18056254 20.40944966 -4.12061861 18.98722639 -7.73828125 16.83984375 C-8.80498047 16.21142578 -9.87167969 15.58300781 -10.97070312 14.93554688 C-12.07349609 14.27619141 -13.17628906 13.61683594 -14.3125 12.9375 C-15.43462891 12.27427734 -16.55675781 11.61105469 -17.71289062 10.92773438 C-20.4791287 9.29153398 -23.2412485 7.64878136 -26 6 C-22.86671803 2.86671803 -18.9002673 2.41189132 -14.6875 1.3125 C-13.83220703 1.07466797 -12.97691406 0.83683594 -12.09570312 0.59179688 C-3.89218897 -1.57504923 -3.89218897 -1.57504923 0 0 Z " fill="#000303" transform="translate(727,1191)"/>
<path d="M0 0 C2 1 2 1 2.88549805 3.54443359 C3.17465088 4.65125488 3.46380371 5.75807617 3.76171875 6.8984375 C4.07560547 8.09984375 4.38949219 9.30125 4.71289062 10.5390625 C5.03451172 11.80492187 5.35613281 13.07078125 5.6875 14.375 C6.02072266 15.633125 6.35394531 16.89125 6.69726562 18.1875 C7.16229492 19.99347656 7.16229492 19.99347656 7.63671875 21.8359375 C7.92248779 22.94501465 8.20825684 24.0540918 8.50268555 25.19677734 C9 28 9 28 8 31 C-2.395 25.06 -2.395 25.06 -13 19 C-10.73820982 11.08373436 -10.73820982 11.08373436 -7.625 7.25 C-7.03976562 6.51265625 -6.45453125 5.7753125 -5.8515625 5.015625 C-4.03922162 3.04269696 -2.1941009 1.52717155 0 0 Z " fill="#000303" transform="translate(675,1178)"/>
<path d="M0 0 C1.85955942 2.78933912 2.50927881 4.42579925 3.2890625 7.59765625 C3.50820313 8.48130859 3.72734375 9.36496094 3.953125 10.27539062 C4.17484375 11.19513672 4.3965625 12.11488281 4.625 13.0625 C4.85445312 13.98611328 5.08390625 14.90972656 5.3203125 15.86132812 C7 22.70505487 7 22.70505487 7 25 C-0.86335332 28.4673054 -7.42930243 29.53847315 -16 29 C-14.61022737 25.30897778 -12.9403208 21.9452522 -10.99609375 18.515625 C-10.42052734 17.49855469 -9.84496094 16.48148438 -9.25195312 15.43359375 C-8.35379883 13.85771484 -8.35379883 13.85771484 -7.4375 12.25 C-6.53354492 10.65091797 -6.53354492 10.65091797 -5.61132812 9.01953125 C-1.13900267 1.13900267 -1.13900267 1.13900267 0 0 Z " fill="#000303" transform="translate(705,1212)"/>
<path d="M0 0 C4.93274056 1.76665557 9.38079822 4.323247 13.9375 6.875 C14.72318359 7.30941406 15.50886719 7.74382812 16.31835938 8.19140625 C20.67765411 10.62093787 24.93968632 13.09325858 29 16 C29 16.33 29 16.66 29 17 C16.625 19.97 16.625 19.97 4 23 C0.71771706 16.43543412 -0.13413993 13.41399272 -0.0625 6.25 C-0.05347656 5.07953125 -0.04445313 3.9090625 -0.03515625 2.703125 C-0.02355469 1.81109375 -0.01195312 0.9190625 0 0 Z " fill="#000202" transform="translate(661,1200)"/>
<path d="M0 0 C4.6883436 1.6981402 8.91856856 4.06162223 13.25 6.5 C13.9821875 6.90347656 14.714375 7.30695313 15.46875 7.72265625 C16.16484375 8.11324219 16.8609375 8.50382812 17.578125 8.90625 C18.21137695 9.26009766 18.84462891 9.61394531 19.49707031 9.97851562 C21 11 21 11 22 13 C19.44353475 20.51572844 14.84573622 25.80701348 9 31 C6.41006913 27.93933688 5.34169147 25.34512441 4.39453125 21.46484375 C4.13349609 20.40845703 3.87246094 19.35207031 3.60351562 18.26367188 C3.34248047 17.16603516 3.08144531 16.06839844 2.8125 14.9375 C2.53986328 13.83599609 2.26722656 12.73449219 1.98632812 11.59960938 C0 3.45018797 0 3.45018797 0 0 Z " fill="#000202" transform="translate(707,1204)"/>
<path d="M0 0 C7.15830051 2.44851325 14.39871213 5.20815393 18.1875 12.1875 C18.455625 12.785625 18.72375 13.38375 19 14 C8.747261 17.40859785 -1.35309658 20.11843517 -12 22 C-10.2657267 17.02642312 -7.56672043 12.68501047 -4.875 8.1875 C-4.40707031 7.39923828 -3.93914063 6.61097656 -3.45703125 5.79882812 C-2.30784603 3.86397546 -1.15542997 1.93112772 0 0 Z " fill="#000303" transform="translate(705,1173)"/>
<path d="M0 0 C-3.28580606 6.919521 -6.8337574 13.60761031 -10.75 20.1875 C-11.13857178 20.84693604 -11.52714355 21.50637207 -11.92749023 22.18579102 C-14.75549279 26.87774639 -14.75549279 26.87774639 -17 28 C-17.81806834 25.14732627 -18.62957796 22.29304815 -19.4375 19.4375 C-19.66759766 18.63763672 -19.89769531 17.83777344 -20.13476562 17.01367188 C-21.45017278 12.34302329 -22.43704245 7.82072847 -23 3 C-15.22270481 -0.21819111 -8.35740901 -0.32098157 0 0 Z " fill="#000202" transform="translate(702,1172)"/>
<path d="M0 0 C2.64 0 5.28 0 8 0 C8 13.53 8 27.06 8 41 C5.36 41 2.72 41 0 41 C0 27.47 0 13.94 0 0 Z " fill="#BDDEDE" transform="translate(980,1367)"/>
<path d="M0 0 C2.48172987 2.48172987 2.69150741 4.53277067 3.015625 7.9609375 C2.99060795 11.22566226 2.30423335 12.69576665 0 15 C-3.89777657 16.35538235 -7.02432399 16.31138596 -10.9375 15.0625 C-13.55338057 12.44661943 -13.90612311 10.62703021 -14.1328125 7 C-13.92906184 3.93175476 -13.01989844 2.28921823 -11 0 C-6.84916837 -2.58024669 -4.35579886 -1.93591061 0 0 Z " fill="#000303" transform="translate(701,1199)"/>
</svg>
